# Blender v3.1.2 OBJ File: ''
# www.blender.org
mtllib field.mtl
o 立方体.004_立方体.005
v 25.000000 0.000000 25.299999
v 25.000000 0.300000 25.299999
v 25.000000 0.000000 -25.299999
v 25.000000 0.300000 -25.299999
v 25.299999 0.000000 25.299999
v 25.299999 0.300000 25.299999
v 25.299999 0.000000 -25.299999
v 25.299999 0.300000 -25.299999
v -24.999998 0.000000 -24.999998
v -24.999998 0.300000 -24.999998
v -24.999998 0.000000 -25.299999
v -24.999998 0.300000 -25.299999
v 25.000002 0.000000 -24.999998
v 25.000002 0.300000 -24.999998
v 25.000002 0.000000 -25.299999
v 25.000002 0.300000 -25.299999
v -25.300001 -49.999996 25.299997
v -25.300001 0.000000 25.299997
v -25.300001 -49.999996 -25.299997
v -25.300001 0.000000 -25.299997
v 25.300001 -49.999996 25.299997
v 25.300001 0.000000 25.299997
v 25.300001 -49.999996 -25.299997
v 25.300001 0.000000 -25.299997
v -24.999998 0.000000 25.299999
v -24.999998 0.300000 25.299999
v -24.999998 0.000000 24.999998
v -24.999998 0.300000 24.999998
v 25.000002 0.000000 25.299999
v 25.000002 0.300000 25.299999
v 25.000002 0.000000 24.999998
v 25.000002 0.300000 24.999998
v -25.300001 0.000000 25.299997
v -25.300001 0.300000 25.299997
v -25.300001 0.000000 -25.299997
v -25.300001 0.300000 -25.299997
v -24.999998 0.000000 25.299997
v -24.999998 0.300000 25.299997
v -24.999998 0.000000 -25.299997
v -24.999998 0.300000 -25.299997
vt 0.625000 0.000000
vt 0.375000 0.250000
vt 0.375000 0.000000
vt 0.625000 0.250000
vt 0.375000 0.500000
vt 0.625000 0.500000
vt 0.375000 0.750000
vt 0.625000 0.750000
vt 0.375000 1.000000
vt 0.125000 0.750000
vt 0.125000 0.500000
vt 0.875000 0.500000
vt 0.625000 0.000000
vt 0.375000 0.250000
vt 0.375000 0.000000
vt 0.625000 0.250000
vt 0.375000 0.500000
vt 0.625000 0.500000
vt 0.375000 0.750000
vt 0.625000 0.750000
vt 0.375000 1.000000
vt 0.125000 0.750000
vt 0.125000 0.500000
vt 0.875000 0.500000
vt 0.625000 0.000000
vt 0.375000 0.250000
vt 0.375000 0.000000
vt 0.625000 0.250000
vt 0.375000 0.500000
vt 0.625000 0.500000
vt 0.375000 0.750000
vt 0.625000 0.750000
vt 0.375000 1.000000
vt 0.125000 0.750000
vt 0.125000 0.500000
vt 0.875000 0.500000
vt 0.625000 0.000000
vt 0.375000 0.250000
vt 0.375000 0.000000
vt 0.625000 0.250000
vt 0.375000 0.500000
vt 0.625000 0.500000
vt 0.375000 0.750000
vt 0.625000 0.750000
vt 0.375000 1.000000
vt 0.125000 0.750000
vt 0.125000 0.500000
vt 0.875000 0.500000
vt 0.625000 0.000000
vt 0.375000 0.250000
vt 0.375000 0.000000
vt 0.625000 0.250000
vt 0.375000 0.500000
vt 0.625000 0.500000
vt 0.375000 0.750000
vt 0.625000 0.750000
vt 0.375000 1.000000
vt 0.125000 0.750000
vt 0.125000 0.500000
vt 0.875000 0.500000
vt 0.625000 1.000000
vt 0.875000 0.750000
vt 0.625000 1.000000
vt 0.875000 0.750000
vt 0.625000 1.000000
vt 0.875000 0.750000
vt 0.625000 1.000000
vt 0.875000 0.750000
vt 0.625000 1.000000
vt 0.875000 0.750000
vn -1.0000 0.0000 0.0000
vn 0.0000 0.0000 -1.0000
vn 1.0000 0.0000 0.0000
vn 0.0000 0.0000 1.0000
vn 0.0000 -1.0000 0.0000
vn 0.0000 1.0000 0.0000
usemtl マテリアル
s off
f 2/1/1 3/2/1 1/3/1
f 4/4/2 7/5/2 3/2/2
f 8/6/3 5/7/3 7/5/3
f 6/8/4 1/9/4 5/7/4
f 7/5/5 1/10/5 3/11/5
f 4/12/6 6/8/6 8/6/6
f 10/13/1 11/14/1 9/15/1
f 12/16/2 15/17/2 11/14/2
f 16/18/3 13/19/3 15/17/3
f 14/20/4 9/21/4 13/19/4
f 15/17/5 9/22/5 11/23/5
f 12/24/6 14/20/6 16/18/6
f 18/25/1 19/26/1 17/27/1
f 20/28/2 23/29/2 19/26/2
f 24/30/3 21/31/3 23/29/3
f 22/32/4 17/33/4 21/31/4
f 23/29/5 17/34/5 19/35/5
f 20/36/6 22/32/6 24/30/6
f 26/37/1 27/38/1 25/39/1
f 28/40/2 31/41/2 27/38/2
f 32/42/3 29/43/3 31/41/3
f 30/44/4 25/45/4 29/43/4
f 31/41/5 25/46/5 27/47/5
f 28/48/6 30/44/6 32/42/6
f 34/49/1 35/50/1 33/51/1
f 36/52/2 39/53/2 35/50/2
f 40/54/3 37/55/3 39/53/3
f 38/56/4 33/57/4 37/55/4
f 39/53/5 33/58/5 35/59/5
f 36/60/6 38/56/6 40/54/6
f 2/1/1 4/4/1 3/2/1
f 4/4/2 8/6/2 7/5/2
f 8/6/3 6/8/3 5/7/3
f 6/8/4 2/61/4 1/9/4
f 7/5/5 5/7/5 1/10/5
f 4/12/6 2/62/6 6/8/6
f 10/13/1 12/16/1 11/14/1
f 12/16/2 16/18/2 15/17/2
f 16/18/3 14/20/3 13/19/3
f 14/20/4 10/63/4 9/21/4
f 15/17/5 13/19/5 9/22/5
f 12/24/6 10/64/6 14/20/6
f 18/25/1 20/28/1 19/26/1
f 20/28/2 24/30/2 23/29/2
f 24/30/3 22/32/3 21/31/3
f 22/32/4 18/65/4 17/33/4
f 23/29/5 21/31/5 17/34/5
f 20/36/6 18/66/6 22/32/6
f 26/37/1 28/40/1 27/38/1
f 28/40/2 32/42/2 31/41/2
f 32/42/3 30/44/3 29/43/3
f 30/44/4 26/67/4 25/45/4
f 31/41/5 29/43/5 25/46/5
f 28/48/6 26/68/6 30/44/6
f 34/49/1 36/52/1 35/50/1
f 36/52/2 40/54/2 39/53/2
f 40/54/3 38/56/3 37/55/3
f 38/56/4 34/69/4 33/57/4
f 39/53/5 37/55/5 33/58/5
f 36/60/6 34/70/6 38/56/6
